<!-- Generated by IcoMoon.io -->
<svg version="1.1" xmlns="http://www.w3.org/2000/svg" width="24" height="24" viewBox="0 0 24 24">
<title>instagram</title>
<path d="M16.512 0h-9.024c-4.128 0-7.488 3.36-7.488 7.488v9c0 4.152 3.36 7.512 7.488 7.512h9c4.152 0 7.512-3.36 7.512-7.488v-9.024c0-4.128-3.36-7.488-7.488-7.488zM21.744 16.512c0 2.904-2.352 5.256-5.256 5.256h-9c-2.904 0-5.256-2.352-5.256-5.256v-9.024c0-2.904 2.352-5.256 5.256-5.256h9c2.904 0 5.256 2.352 5.256 5.256v9.024zM12 6c-3.312 0-6 2.688-6 6s2.688 6 6 6 6-2.688 6-6-2.688-6-6-6zM12 15.744c-2.064 0-3.744-1.68-3.744-3.744s1.68-3.744 3.744-3.744 3.744 1.68 3.744 3.744c0 2.064-1.68 3.744-3.744 3.744zM19.248 5.544c0 0.437-0.355 0.792-0.792 0.792s-0.792-0.355-0.792-0.792c0-0.437 0.355-0.792 0.792-0.792s0.792 0.355 0.792 0.792z"></path>
</svg>
