<!-- Generated by IcoMoon.io -->
<svg version="1.1" xmlns="http://www.w3.org/2000/svg" width="24" height="24" viewBox="0 0 24 24">
<title>telegram</title>
<path d="M0.424 11.572l5.53 2.064 2.14 6.884c0.137 0.441 0.676 0.604 1.034 0.311l3.083-2.513c0.323-0.263 0.783-0.276 1.121-0.031l5.56 4.037c0.383 0.278 0.925 0.068 1.021-0.394l4.073-19.591c0.105-0.505-0.392-0.927-0.873-0.741l-22.696 8.755c-0.56 0.216-0.555 1.009 0.006 1.219zM7.75 12.537l10.808-6.657c0.194-0.119 0.394 0.143 0.227 0.298l-8.92 8.291c-0.314 0.292-0.516 0.682-0.573 1.106l-0.304 2.252c-0.040 0.301-0.463 0.33-0.546 0.040l-1.169-4.106c-0.134-0.468 0.061-0.969 0.475-1.224z"></path>
</svg>
