<!-- Generated by IcoMoon.io -->
<svg version="1.1" xmlns="http://www.w3.org/2000/svg" width="24" height="24" viewBox="0 0 24 24">
<title>youtube</title>
<path d="M21.768 12.144c-0.24-1.080-1.128-1.872-2.184-1.992-2.52-0.288-5.064-0.288-7.584-0.288s-5.064 0-7.584 0.288c-1.056 0.12-1.944 0.912-2.184 1.992-0.36 1.536-0.36 3.216-0.36 4.8s0 3.264 0.36 4.8c0.24 1.080 1.128 1.872 2.184 1.992 2.52 0.264 5.040 0.264 7.584 0.264 2.52 0 5.064 0 7.584-0.288 1.056-0.12 1.944-0.912 2.184-1.992 0.36-1.536 0.36-3.216 0.36-4.8 0-1.56 0-3.24-0.36-4.776zM7.656 13.344h-1.464v7.776h-1.368v-7.776h-1.44v-1.272h4.272v1.272zM11.352 21.12h-1.224v-0.72c-0.48 0.552-0.96 0.84-1.392 0.84-0.384 0-0.672-0.168-0.792-0.504-0.072-0.216-0.096-0.528-0.096-1.008v-5.352h1.224v4.968c0 0.288 0 0.432 0 0.48 0.024 0.192 0.12 0.288 0.288 0.288 0.24 0 0.504-0.192 0.768-0.576v-5.16h1.224v6.744zM16.008 19.104c0 0.624-0.048 1.080-0.12 1.368-0.168 0.504-0.48 0.768-0.984 0.768-0.432 0-0.864-0.24-1.272-0.744v0.624h-1.224v-9.048h1.224v2.952c0.384-0.48 0.816-0.744 1.272-0.744 0.48 0 0.816 0.264 0.984 0.768 0.072 0.264 0.12 0.72 0.12 1.368v2.688zM20.616 17.976h-2.448v1.2c0 0.624 0.216 0.936 0.624 0.936 0.312 0 0.48-0.168 0.552-0.48 0-0.072 0.024-0.336 0.024-0.84h1.248v0.168c0 0.384-0.024 0.672-0.024 0.792-0.048 0.264-0.144 0.528-0.288 0.744-0.336 0.48-0.84 0.744-1.488 0.744s-1.128-0.24-1.488-0.696c-0.264-0.336-0.384-0.864-0.384-1.584v-2.376c0-0.72 0.12-1.248 0.384-1.584 0.36-0.456 0.84-0.696 1.464-0.696s1.104 0.24 1.44 0.696c0.264 0.336 0.384 0.864 0.384 1.584v1.392zM18.792 15.384c-0.408 0-0.624 0.312-0.624 0.936v0.624h1.224v-0.624c0-0.624-0.192-0.936-0.6-0.936zM14.232 15.384c-0.192 0-0.408 0.096-0.6 0.288v4.128c0.216 0.216 0.408 0.312 0.6 0.312 0.36 0 0.528-0.312 0.528-0.912v-2.88c0.024-0.624-0.168-0.936-0.528-0.936zM14.928 9.264c0.456 0 0.912-0.264 1.416-0.84v0.744h1.248v-6.84h-1.248v5.208c-0.264 0.384-0.528 0.576-0.792 0.576-0.168 0-0.264-0.096-0.288-0.288-0.024-0.048-0.024-0.192-0.024-0.48v-5.016h-1.224v5.4c0 0.48 0.048 0.816 0.12 1.008 0.12 0.36 0.384 0.528 0.792 0.528zM6.312 5.448v3.72h1.368v-3.72l1.656-5.448h-1.392l-0.936 3.6-0.96-3.6h-1.44c0.288 0.84 0.6 1.704 0.888 2.544 0.408 1.296 0.696 2.256 0.816 2.904zM11.184 9.264c0.624 0 1.104-0.24 1.44-0.696 0.264-0.336 0.384-0.888 0.384-1.608v-2.4c0-0.72-0.12-1.272-0.384-1.608-0.336-0.456-0.816-0.696-1.44-0.696s-1.104 0.24-1.44 0.696c-0.264 0.336-0.384 0.888-0.384 1.608v2.4c0 0.72 0.12 1.272 0.384 1.608 0.336 0.456 0.816 0.696 1.44 0.696zM10.584 4.32c0-0.624 0.192-0.936 0.6-0.936s0.6 0.312 0.6 0.936v2.88c0 0.624-0.192 0.936-0.6 0.936s-0.6-0.312-0.6-0.936v-2.88z"></path>
</svg>
